<svg width="24" height="24" viewBox="0 0 24 24" fill="none" xmlns="http://www.w3.org/2000/svg">
<path d="M3.75 5.99997H2.25C2.05109 5.99997 1.86032 5.92096 1.71967 5.7803C1.57902 5.63965 1.5 5.44889 1.5 5.24997C1.5 5.05106 1.57902 4.8603 1.71967 4.71964C1.86032 4.57899 2.05109 4.49997 2.25 4.49997H8.25V2.24847C8.25 2.04956 8.32902 1.8588 8.46967 1.71814C8.61032 1.57749 8.80109 1.49847 9 1.49847H15C15.1989 1.49847 15.3897 1.57749 15.5303 1.71814C15.671 1.8588 15.75 2.04956 15.75 2.24847V4.49997H21.75C21.9489 4.49997 22.1397 4.57899 22.2803 4.71964C22.421 4.8603 22.5 5.05106 22.5 5.24997C22.5 5.44889 22.421 5.63965 22.2803 5.7803C22.1397 5.92096 21.9489 5.99997 21.75 5.99997H20.25V21.75C20.25 21.9489 20.171 22.1397 20.0303 22.2803C19.8897 22.421 19.6989 22.5 19.5 22.5H4.5C4.30109 22.5 4.11032 22.421 3.96967 22.2803C3.82902 22.1397 3.75 21.9489 3.75 21.75V5.99997ZM14.25 4.49997V2.99997H9.75V4.49997H14.25ZM5.25 21H18.75V5.99997H5.25V21ZM9.75 18C9.55109 18 9.36032 17.921 9.21967 17.7803C9.07902 17.6397 9 17.4489 9 17.25V9.74997C9 9.55106 9.07902 9.3603 9.21967 9.21964C9.36032 9.07899 9.55109 8.99997 9.75 8.99997C9.94891 8.99997 10.1397 9.07899 10.2803 9.21964C10.421 9.3603 10.5 9.55106 10.5 9.74997V17.25C10.5 17.4489 10.421 17.6397 10.2803 17.7803C10.1397 17.921 9.94891 18 9.75 18ZM14.25 18C14.0511 18 13.8603 17.921 13.7197 17.7803C13.579 17.6397 13.5 17.4489 13.5 17.25V9.74997C13.5 9.55106 13.579 9.3603 13.7197 9.21964C13.8603 9.07899 14.0511 8.99997 14.25 8.99997C14.4489 8.99997 14.6397 9.07899 14.7803 9.21964C14.921 9.3603 15 9.55106 15 9.74997V17.25C15 17.4489 14.921 17.6397 14.7803 17.7803C14.6397 17.921 14.4489 18 14.25 18Z" fill="#3b536e" />
</svg>
